<mxfile host="app.diagrams.net" modified="2023-10-06T17:16:52.554Z" agent="Mozilla/5.0 (Windows NT 10.0; Win64; x64) AppleWebKit/537.36 (KHTML, like Gecko) Chrome/115.0.0.0 Safari/537.36" etag="jtezqwCKTBsWm28CFpfR" version="22.0.3" type="device">
  <diagram name="Página-1" id="pv9tKFROp2prfNbfILGG">
    <mxGraphModel dx="2261" dy="1951" grid="1" gridSize="10" guides="1" tooltips="1" connect="1" arrows="1" fold="1" page="1" pageScale="1" pageWidth="827" pageHeight="1169" math="0" shadow="0">
      <root>
        <mxCell id="0" />
        <mxCell id="1" parent="0" />
        <mxCell id="mfQhpHa_TRPt92YBelA_-9" style="edgeStyle=orthogonalEdgeStyle;rounded=0;orthogonalLoop=1;jettySize=auto;html=1;exitX=0.5;exitY=1;exitDx=0;exitDy=0;entryX=0.5;entryY=0;entryDx=0;entryDy=0;fontStyle=1" parent="1" source="mfQhpHa_TRPt92YBelA_-2" target="mfQhpHa_TRPt92YBelA_-5" edge="1">
          <mxGeometry relative="1" as="geometry">
            <mxPoint x="437.5" y="290" as="sourcePoint" />
          </mxGeometry>
        </mxCell>
        <mxCell id="mfQhpHa_TRPt92YBelA_-2" value="&lt;font style=&quot;font-size: 17px;&quot;&gt;Inicio&lt;/font&gt;" style="ellipse;whiteSpace=wrap;html=1;aspect=fixed;fontStyle=1;fillColor=#bac8d3;strokeColor=#23445d;strokeWidth=3;" parent="1" vertex="1">
          <mxGeometry x="407.5" y="40" width="60" height="60" as="geometry" />
        </mxCell>
        <mxCell id="mKymQcB3Vps974aYr2Mk-3" style="edgeStyle=orthogonalEdgeStyle;rounded=0;orthogonalLoop=1;jettySize=auto;html=1;exitX=0.5;exitY=1;exitDx=0;exitDy=0;entryX=0.5;entryY=0;entryDx=0;entryDy=0;" parent="1" source="mfQhpHa_TRPt92YBelA_-5" target="mKymQcB3Vps974aYr2Mk-2" edge="1">
          <mxGeometry relative="1" as="geometry" />
        </mxCell>
        <mxCell id="mfQhpHa_TRPt92YBelA_-5" value="Revisión pedido cliente" style="rounded=0;whiteSpace=wrap;html=1;fontSize=15;fillColor=#66FF66;fontStyle=1" parent="1" vertex="1">
          <mxGeometry x="377.5" y="130" width="120" height="60" as="geometry" />
        </mxCell>
        <mxCell id="mfQhpHa_TRPt92YBelA_-22" style="edgeStyle=orthogonalEdgeStyle;rounded=0;orthogonalLoop=1;jettySize=auto;html=1;exitX=0;exitY=0.5;exitDx=0;exitDy=0;entryX=1;entryY=0.5;entryDx=0;entryDy=0;fontStyle=1" parent="1" source="mfQhpHa_TRPt92YBelA_-7" target="mfQhpHa_TRPt92YBelA_-20" edge="1">
          <mxGeometry relative="1" as="geometry" />
        </mxCell>
        <mxCell id="5uez7q-j1dndz9BCU4vh-7" style="edgeStyle=orthogonalEdgeStyle;rounded=0;orthogonalLoop=1;jettySize=auto;html=1;exitX=0.5;exitY=1;exitDx=0;exitDy=0;entryX=0.5;entryY=0;entryDx=0;entryDy=0;fontStyle=1" parent="1" source="mfQhpHa_TRPt92YBelA_-7" target="5uez7q-j1dndz9BCU4vh-6" edge="1">
          <mxGeometry relative="1" as="geometry" />
        </mxCell>
        <mxCell id="mfQhpHa_TRPt92YBelA_-7" value="¿Disponibilidad&amp;nbsp;para vender?" style="rhombus;whiteSpace=wrap;html=1;fontSize=14;fillColor=#66FF66;fontStyle=1" parent="1" vertex="1">
          <mxGeometry x="290" y="489" width="295" height="110" as="geometry" />
        </mxCell>
        <mxCell id="mfQhpHa_TRPt92YBelA_-14" value="NO" style="text;html=1;strokeColor=none;fillColor=none;align=center;verticalAlign=middle;whiteSpace=wrap;rounded=0;fontSize=15;fontStyle=1" parent="1" vertex="1">
          <mxGeometry x="270" y="554" width="60" height="30" as="geometry" />
        </mxCell>
        <mxCell id="mfQhpHa_TRPt92YBelA_-16" value="Petición del cliente" style="rounded=0;whiteSpace=wrap;html=1;fontSize=15;fillColor=#66FF66;fontStyle=1" parent="1" vertex="1">
          <mxGeometry x="377.5" y="-40" width="120" height="60" as="geometry" />
        </mxCell>
        <mxCell id="mfQhpHa_TRPt92YBelA_-18" value="Compra" style="rounded=0;whiteSpace=wrap;html=1;fontSize=15;fillColor=#66FFFF;fontStyle=1" parent="1" vertex="1">
          <mxGeometry x="40" y="-40" width="120" height="60" as="geometry" />
        </mxCell>
        <mxCell id="mfQhpHa_TRPt92YBelA_-26" style="edgeStyle=orthogonalEdgeStyle;rounded=0;orthogonalLoop=1;jettySize=auto;html=1;exitX=0.5;exitY=0;exitDx=0;exitDy=0;entryX=0.5;entryY=1;entryDx=0;entryDy=0;fontStyle=1" parent="1" source="mfQhpHa_TRPt92YBelA_-20" target="mfQhpHa_TRPt92YBelA_-23" edge="1">
          <mxGeometry relative="1" as="geometry" />
        </mxCell>
        <mxCell id="mfQhpHa_TRPt92YBelA_-20" value="Cotizar repuesto" style="rounded=0;whiteSpace=wrap;html=1;fontSize=15;fillColor=#66FFFF;fontStyle=1" parent="1" vertex="1">
          <mxGeometry x="40" y="515" width="120" height="60" as="geometry" />
        </mxCell>
        <mxCell id="mfQhpHa_TRPt92YBelA_-30" style="edgeStyle=orthogonalEdgeStyle;rounded=0;orthogonalLoop=1;jettySize=auto;html=1;exitX=0;exitY=0.5;exitDx=0;exitDy=0;entryX=0;entryY=0.5;entryDx=0;entryDy=0;fontStyle=1" parent="1" source="mfQhpHa_TRPt92YBelA_-23" target="mfQhpHa_TRPt92YBelA_-20" edge="1">
          <mxGeometry relative="1" as="geometry" />
        </mxCell>
        <mxCell id="mKymQcB3Vps974aYr2Mk-9" style="edgeStyle=orthogonalEdgeStyle;rounded=0;orthogonalLoop=1;jettySize=auto;html=1;exitX=0.5;exitY=0;exitDx=0;exitDy=0;entryX=0.5;entryY=1;entryDx=0;entryDy=0;" parent="1" source="mfQhpHa_TRPt92YBelA_-23" target="mKymQcB3Vps974aYr2Mk-10" edge="1">
          <mxGeometry relative="1" as="geometry">
            <mxPoint x="100.11764705882342" y="330" as="targetPoint" />
          </mxGeometry>
        </mxCell>
        <mxCell id="mfQhpHa_TRPt92YBelA_-23" value="¿Repuesto disponible &lt;br&gt;para comprarlo?" style="rhombus;whiteSpace=wrap;html=1;fontSize=14;fillColor=#66FFFF;fontStyle=1" parent="1" vertex="1">
          <mxGeometry x="-47.5" y="380" width="295" height="90" as="geometry" />
        </mxCell>
        <mxCell id="mfQhpHa_TRPt92YBelA_-25" value="SI" style="text;html=1;strokeColor=none;fillColor=none;align=center;verticalAlign=middle;whiteSpace=wrap;rounded=0;fontSize=15;fontStyle=1" parent="1" vertex="1">
          <mxGeometry x="90" y="350" width="60" height="30" as="geometry" />
        </mxCell>
        <mxCell id="mfQhpHa_TRPt92YBelA_-29" value="Venta" style="rounded=0;whiteSpace=wrap;html=1;fontSize=15;fillColor=#FFCCCC;fontStyle=1" parent="1" vertex="1">
          <mxGeometry x="680" y="-40" width="120" height="60" as="geometry" />
        </mxCell>
        <mxCell id="mfQhpHa_TRPt92YBelA_-31" value="NO" style="text;html=1;strokeColor=none;fillColor=none;align=center;verticalAlign=middle;whiteSpace=wrap;rounded=0;fontSize=15;fontStyle=1" parent="1" vertex="1">
          <mxGeometry x="-90" y="390" width="60" height="30" as="geometry" />
        </mxCell>
        <mxCell id="mfQhpHa_TRPt92YBelA_-47" style="edgeStyle=orthogonalEdgeStyle;rounded=0;orthogonalLoop=1;jettySize=auto;html=1;exitX=0.5;exitY=0;exitDx=0;exitDy=0;entryX=0.5;entryY=1;entryDx=0;entryDy=0;fontStyle=1" parent="1" source="mfQhpHa_TRPt92YBelA_-42" target="mfQhpHa_TRPt92YBelA_-46" edge="1">
          <mxGeometry relative="1" as="geometry" />
        </mxCell>
        <mxCell id="mfQhpHa_TRPt92YBelA_-42" value="Enlistar repuestos" style="rounded=0;whiteSpace=wrap;html=1;fontSize=15;fillColor=#FFCCCC;fontStyle=1" parent="1" vertex="1">
          <mxGeometry x="680" y="510" width="120" height="60" as="geometry" />
        </mxCell>
        <mxCell id="e19bzjLe1iYyCG-W0Qoi-3" style="edgeStyle=orthogonalEdgeStyle;rounded=0;orthogonalLoop=1;jettySize=auto;html=1;exitX=0.5;exitY=0;exitDx=0;exitDy=0;entryX=0.5;entryY=1;entryDx=0;entryDy=0;fontStyle=1" parent="1" source="mfQhpHa_TRPt92YBelA_-44" target="e19bzjLe1iYyCG-W0Qoi-1" edge="1">
          <mxGeometry relative="1" as="geometry" />
        </mxCell>
        <mxCell id="mfQhpHa_TRPt92YBelA_-44" value="Generar factura" style="rounded=0;whiteSpace=wrap;html=1;fontSize=15;fillColor=#FFCCCC;fontStyle=1" parent="1" vertex="1">
          <mxGeometry x="680" y="240" width="120" height="60" as="geometry" />
        </mxCell>
        <mxCell id="mfQhpHa_TRPt92YBelA_-48" style="edgeStyle=orthogonalEdgeStyle;rounded=0;orthogonalLoop=1;jettySize=auto;html=1;exitX=0.5;exitY=0;exitDx=0;exitDy=0;entryX=0.5;entryY=1;entryDx=0;entryDy=0;fontStyle=1" parent="1" source="mfQhpHa_TRPt92YBelA_-46" target="mfQhpHa_TRPt92YBelA_-44" edge="1">
          <mxGeometry relative="1" as="geometry" />
        </mxCell>
        <mxCell id="mfQhpHa_TRPt92YBelA_-46" value="Gestionar modo de pago" style="rounded=0;whiteSpace=wrap;html=1;fontSize=15;fillColor=#FFCCCC;fontStyle=1" parent="1" vertex="1">
          <mxGeometry x="680" y="375" width="120" height="60" as="geometry" />
        </mxCell>
        <mxCell id="mfQhpHa_TRPt92YBelA_-53" value="Pago" style="rounded=0;whiteSpace=wrap;html=1;fontSize=15;fillColor=#fff2cc;strokeColor=#d6b656;fontStyle=1" parent="1" vertex="1">
          <mxGeometry x="948.75" y="-40" width="120" height="60" as="geometry" />
        </mxCell>
        <mxCell id="BhGprW0hee5CYQVRKkRc-2" style="edgeStyle=orthogonalEdgeStyle;rounded=0;orthogonalLoop=1;jettySize=auto;html=1;entryX=0.5;entryY=0;entryDx=0;entryDy=0;fontStyle=1" parent="1" source="mfQhpHa_TRPt92YBelA_-54" target="BhGprW0hee5CYQVRKkRc-1" edge="1">
          <mxGeometry relative="1" as="geometry" />
        </mxCell>
        <mxCell id="mfQhpHa_TRPt92YBelA_-54" value="Pago de factura por parte del cliente" style="rounded=0;whiteSpace=wrap;html=1;fontSize=15;fillColor=#FFF2CC;fontStyle=1" parent="1" vertex="1">
          <mxGeometry x="948.75" y="130" width="120" height="60" as="geometry" />
        </mxCell>
        <mxCell id="mKymQcB3Vps974aYr2Mk-6" style="edgeStyle=orthogonalEdgeStyle;rounded=0;orthogonalLoop=1;jettySize=auto;html=1;exitX=1;exitY=0.5;exitDx=0;exitDy=0;entryX=0;entryY=0.5;entryDx=0;entryDy=0;" parent="1" source="mfQhpHa_TRPt92YBelA_-55" target="mfQhpHa_TRPt92YBelA_-79" edge="1">
          <mxGeometry relative="1" as="geometry" />
        </mxCell>
        <mxCell id="mKymQcB3Vps974aYr2Mk-25" style="edgeStyle=orthogonalEdgeStyle;rounded=0;orthogonalLoop=1;jettySize=auto;html=1;exitX=0.5;exitY=1;exitDx=0;exitDy=0;entryX=0.5;entryY=0;entryDx=0;entryDy=0;" parent="1" source="mfQhpHa_TRPt92YBelA_-55" target="mfQhpHa_TRPt92YBelA_-60" edge="1">
          <mxGeometry relative="1" as="geometry" />
        </mxCell>
        <mxCell id="mfQhpHa_TRPt92YBelA_-55" value="¿Pago exitoso?" style="rhombus;whiteSpace=wrap;html=1;fontSize=14;fillColor=#FFF2CC;fontStyle=1" parent="1" vertex="1">
          <mxGeometry x="880" y="355" width="257.5" height="80" as="geometry" />
        </mxCell>
        <mxCell id="e19bzjLe1iYyCG-W0Qoi-2" style="edgeStyle=orthogonalEdgeStyle;rounded=0;orthogonalLoop=1;jettySize=auto;html=1;exitX=0.5;exitY=1;exitDx=0;exitDy=0;entryX=0.5;entryY=0;entryDx=0;entryDy=0;fontStyle=1" parent="1" source="mfQhpHa_TRPt92YBelA_-60" target="BhGprW0hee5CYQVRKkRc-10" edge="1">
          <mxGeometry relative="1" as="geometry" />
        </mxCell>
        <mxCell id="mfQhpHa_TRPt92YBelA_-60" value="Entregar repuestos" style="rounded=0;whiteSpace=wrap;html=1;fontSize=15;fillColor=#FFF2CC;fontStyle=1" parent="1" vertex="1">
          <mxGeometry x="948.75" y="480" width="120" height="60" as="geometry" />
        </mxCell>
        <mxCell id="mfQhpHa_TRPt92YBelA_-75" value="SI" style="text;html=1;strokeColor=none;fillColor=none;align=center;verticalAlign=middle;whiteSpace=wrap;rounded=0;fontSize=15;fontStyle=1" parent="1" vertex="1">
          <mxGeometry x="998.75" y="440" width="60" height="30" as="geometry" />
        </mxCell>
        <mxCell id="mfQhpHa_TRPt92YBelA_-83" style="edgeStyle=orthogonalEdgeStyle;rounded=0;orthogonalLoop=1;jettySize=auto;html=1;entryX=0.5;entryY=0;entryDx=0;entryDy=0;fontStyle=1;exitX=0.5;exitY=1;exitDx=0;exitDy=0;" parent="1" source="mfQhpHa_TRPt92YBelA_-79" target="mfQhpHa_TRPt92YBelA_-80" edge="1">
          <mxGeometry relative="1" as="geometry">
            <Array as="points">
              <mxPoint x="1260" y="430" />
              <mxPoint x="1260" y="590" />
            </Array>
          </mxGeometry>
        </mxCell>
        <mxCell id="mfQhpHa_TRPt92YBelA_-79" value="Cancelar operación" style="rounded=0;whiteSpace=wrap;html=1;fontSize=15;fillColor=#FFF2CC;fontStyle=1" parent="1" vertex="1">
          <mxGeometry x="1200" y="366" width="120" height="60" as="geometry" />
        </mxCell>
        <mxCell id="mfQhpHa_TRPt92YBelA_-80" value="Fin" style="ellipse;whiteSpace=wrap;html=1;aspect=fixed;fillColor=#e3c800;fontColor=#000000;strokeColor=#B09500;fontStyle=1" parent="1" vertex="1">
          <mxGeometry x="1230" y="600" width="60" height="60" as="geometry" />
        </mxCell>
        <mxCell id="mfQhpHa_TRPt92YBelA_-82" value="NO" style="text;html=1;strokeColor=none;fillColor=none;align=center;verticalAlign=middle;whiteSpace=wrap;rounded=0;fontSize=15;fontStyle=1" parent="1" vertex="1">
          <mxGeometry x="1110" y="360" width="60" height="30" as="geometry" />
        </mxCell>
        <mxCell id="mKymQcB3Vps974aYr2Mk-16" style="edgeStyle=orthogonalEdgeStyle;rounded=0;orthogonalLoop=1;jettySize=auto;html=1;entryX=0;entryY=0.5;entryDx=0;entryDy=0;" parent="1" source="WWze8zweUwzWCclQnENY-1" target="5uez7q-j1dndz9BCU4vh-6" edge="1">
          <mxGeometry relative="1" as="geometry">
            <mxPoint x="340" y="700" as="targetPoint" />
            <Array as="points">
              <mxPoint x="-180" y="680" />
            </Array>
          </mxGeometry>
        </mxCell>
        <mxCell id="WWze8zweUwzWCclQnENY-1" value="Almacenar repuesto comprado" style="rounded=0;whiteSpace=wrap;html=1;fontSize=15;fillColor=#66FFFF;fontStyle=1" parent="1" vertex="1">
          <mxGeometry x="-240" y="500" width="120" height="60" as="geometry" />
        </mxCell>
        <mxCell id="mKymQcB3Vps974aYr2Mk-15" style="edgeStyle=orthogonalEdgeStyle;rounded=0;orthogonalLoop=1;jettySize=auto;html=1;entryX=0.5;entryY=0;entryDx=0;entryDy=0;" parent="1" source="WWze8zweUwzWCclQnENY-2" target="WWze8zweUwzWCclQnENY-1" edge="1">
          <mxGeometry relative="1" as="geometry" />
        </mxCell>
        <mxCell id="WWze8zweUwzWCclQnENY-2" value="Comprar repuesto a proveedor" style="rounded=0;whiteSpace=wrap;html=1;fontSize=15;fillColor=#66FFFF;fontStyle=1" parent="1" vertex="1">
          <mxGeometry x="-240" y="330" width="120" height="60" as="geometry" />
        </mxCell>
        <mxCell id="mKymQcB3Vps974aYr2Mk-20" style="edgeStyle=orthogonalEdgeStyle;rounded=0;orthogonalLoop=1;jettySize=auto;html=1;exitX=0.5;exitY=1;exitDx=0;exitDy=0;entryX=0.5;entryY=1;entryDx=0;entryDy=0;" parent="1" source="5uez7q-j1dndz9BCU4vh-6" target="mfQhpHa_TRPt92YBelA_-42" edge="1">
          <mxGeometry relative="1" as="geometry" />
        </mxCell>
        <mxCell id="5uez7q-j1dndz9BCU4vh-6" value="Notificar cliente" style="rounded=0;whiteSpace=wrap;html=1;fontSize=15;fillColor=#66FF66;fontStyle=1" parent="1" vertex="1">
          <mxGeometry x="377.5" y="650" width="120" height="60" as="geometry" />
        </mxCell>
        <mxCell id="5uez7q-j1dndz9BCU4vh-8" value="SI" style="text;html=1;strokeColor=none;fillColor=none;align=center;verticalAlign=middle;whiteSpace=wrap;rounded=0;fontSize=15;fontStyle=1" parent="1" vertex="1">
          <mxGeometry x="430" y="599" width="60" height="30" as="geometry" />
        </mxCell>
        <mxCell id="mKymQcB3Vps974aYr2Mk-5" style="edgeStyle=orthogonalEdgeStyle;rounded=0;orthogonalLoop=1;jettySize=auto;html=1;exitX=0.5;exitY=1;exitDx=0;exitDy=0;entryX=0.5;entryY=0;entryDx=0;entryDy=0;" parent="1" source="BhGprW0hee5CYQVRKkRc-1" target="mfQhpHa_TRPt92YBelA_-55" edge="1">
          <mxGeometry relative="1" as="geometry" />
        </mxCell>
        <mxCell id="BhGprW0hee5CYQVRKkRc-1" value="Validar pago" style="rounded=0;whiteSpace=wrap;html=1;fontSize=15;fillColor=#FFF2CC;fontStyle=1" parent="1" vertex="1">
          <mxGeometry x="948.75" y="242.5" width="120" height="60" as="geometry" />
        </mxCell>
        <mxCell id="BhGprW0hee5CYQVRKkRc-49" style="edgeStyle=orthogonalEdgeStyle;rounded=0;orthogonalLoop=1;jettySize=auto;html=1;fontStyle=1" parent="1" source="BhGprW0hee5CYQVRKkRc-10" target="mfQhpHa_TRPt92YBelA_-80" edge="1">
          <mxGeometry relative="1" as="geometry" />
        </mxCell>
        <mxCell id="BhGprW0hee5CYQVRKkRc-10" value="Registrar operaciòn" style="rounded=0;whiteSpace=wrap;html=1;fontSize=15;fillColor=#FFF2CC;fontStyle=1" parent="1" vertex="1">
          <mxGeometry x="948.75" y="600" width="120" height="60" as="geometry" />
        </mxCell>
        <mxCell id="e19bzjLe1iYyCG-W0Qoi-4" style="edgeStyle=orthogonalEdgeStyle;rounded=0;orthogonalLoop=1;jettySize=auto;html=1;exitX=1;exitY=0.5;exitDx=0;exitDy=0;entryX=0;entryY=0.5;entryDx=0;entryDy=0;fontStyle=1" parent="1" source="e19bzjLe1iYyCG-W0Qoi-1" target="mfQhpHa_TRPt92YBelA_-54" edge="1">
          <mxGeometry relative="1" as="geometry" />
        </mxCell>
        <mxCell id="e19bzjLe1iYyCG-W0Qoi-1" value="Empacar repuestos" style="rounded=0;whiteSpace=wrap;html=1;fontSize=15;fillColor=#FFCCCC;fontStyle=1" parent="1" vertex="1">
          <mxGeometry x="680" y="130" width="120" height="60" as="geometry" />
        </mxCell>
        <mxCell id="mKymQcB3Vps974aYr2Mk-4" style="edgeStyle=orthogonalEdgeStyle;rounded=0;orthogonalLoop=1;jettySize=auto;html=1;exitX=0.5;exitY=1;exitDx=0;exitDy=0;entryX=0.5;entryY=0;entryDx=0;entryDy=0;" parent="1" source="mKymQcB3Vps974aYr2Mk-2" target="mfQhpHa_TRPt92YBelA_-7" edge="1">
          <mxGeometry relative="1" as="geometry" />
        </mxCell>
        <mxCell id="mKymQcB3Vps974aYr2Mk-2" value="Tomar datos cliente" style="rounded=0;whiteSpace=wrap;html=1;fontSize=15;fillColor=#66FF66;fontStyle=1" parent="1" vertex="1">
          <mxGeometry x="377.5" y="280" width="120" height="60" as="geometry" />
        </mxCell>
        <mxCell id="mKymQcB3Vps974aYr2Mk-13" style="edgeStyle=orthogonalEdgeStyle;rounded=0;orthogonalLoop=1;jettySize=auto;html=1;exitX=0.5;exitY=0;exitDx=0;exitDy=0;entryX=0.5;entryY=1;entryDx=0;entryDy=0;" parent="1" source="mKymQcB3Vps974aYr2Mk-10" target="mKymQcB3Vps974aYr2Mk-12" edge="1">
          <mxGeometry relative="1" as="geometry" />
        </mxCell>
        <mxCell id="mKymQcB3Vps974aYr2Mk-10" value="Avisar al cliente" style="rounded=0;whiteSpace=wrap;html=1;fontSize=15;fillColor=#66FFFF;fontStyle=1" parent="1" vertex="1">
          <mxGeometry x="40" y="270" width="120" height="60" as="geometry" />
        </mxCell>
        <mxCell id="mKymQcB3Vps974aYr2Mk-18" style="edgeStyle=orthogonalEdgeStyle;rounded=0;orthogonalLoop=1;jettySize=auto;html=1;exitX=0.5;exitY=0;exitDx=0;exitDy=0;entryX=0.5;entryY=1;entryDx=0;entryDy=0;" parent="1" source="mKymQcB3Vps974aYr2Mk-12" target="mfQhpHa_TRPt92YBelA_-80" edge="1">
          <mxGeometry relative="1" as="geometry">
            <Array as="points">
              <mxPoint x="100" y="90" />
              <mxPoint x="-270" y="90" />
              <mxPoint x="-270" y="780" />
              <mxPoint x="1260" y="780" />
            </Array>
          </mxGeometry>
        </mxCell>
        <mxCell id="DP_WEvR6P0dLDyTKHy58-2" style="edgeStyle=orthogonalEdgeStyle;rounded=0;orthogonalLoop=1;jettySize=auto;html=1;exitX=0;exitY=0.5;exitDx=0;exitDy=0;entryX=1;entryY=0.5;entryDx=0;entryDy=0;" parent="1" source="mKymQcB3Vps974aYr2Mk-12" target="DP_WEvR6P0dLDyTKHy58-1" edge="1">
          <mxGeometry relative="1" as="geometry" />
        </mxCell>
        <mxCell id="mKymQcB3Vps974aYr2Mk-12" value="¿El cliente está de acuerdo&lt;br&gt;&amp;nbsp;con el precio?" style="rhombus;whiteSpace=wrap;html=1;fontSize=14;fillColor=#66FFFF;fontStyle=1" parent="1" vertex="1">
          <mxGeometry x="-47.5" y="115" width="295" height="90" as="geometry" />
        </mxCell>
        <mxCell id="mKymQcB3Vps974aYr2Mk-17" value="SI" style="text;html=1;strokeColor=none;fillColor=none;align=center;verticalAlign=middle;whiteSpace=wrap;rounded=0;fontSize=15;fontStyle=1" parent="1" vertex="1">
          <mxGeometry x="-70" y="160" width="60" height="30" as="geometry" />
        </mxCell>
        <mxCell id="mKymQcB3Vps974aYr2Mk-19" value="NO" style="text;html=1;strokeColor=none;fillColor=none;align=center;verticalAlign=middle;whiteSpace=wrap;rounded=0;fontSize=15;fontStyle=1" parent="1" vertex="1">
          <mxGeometry x="90" y="85" width="60" height="30" as="geometry" />
        </mxCell>
        <mxCell id="mKymQcB3Vps974aYr2Mk-21" value="" style="endArrow=none;html=1;rounded=0;strokeWidth=3;strokeColor=#4D4D4D;" parent="1" edge="1">
          <mxGeometry width="50" height="50" relative="1" as="geometry">
            <mxPoint x="260" y="800" as="sourcePoint" />
            <mxPoint x="260" y="-40" as="targetPoint" />
          </mxGeometry>
        </mxCell>
        <mxCell id="mKymQcB3Vps974aYr2Mk-22" value="" style="endArrow=none;html=1;rounded=0;strokeWidth=3;strokeColor=#4D4D4D;" parent="1" edge="1">
          <mxGeometry width="50" height="50" relative="1" as="geometry">
            <mxPoint x="610" y="800" as="sourcePoint" />
            <mxPoint x="610" y="-40" as="targetPoint" />
          </mxGeometry>
        </mxCell>
        <mxCell id="mKymQcB3Vps974aYr2Mk-23" value="" style="endArrow=none;html=1;rounded=0;strokeWidth=3;strokeColor=#4D4D4D;" parent="1" edge="1">
          <mxGeometry width="50" height="50" relative="1" as="geometry">
            <mxPoint x="840" y="800" as="sourcePoint" />
            <mxPoint x="840" y="-40" as="targetPoint" />
          </mxGeometry>
        </mxCell>
        <mxCell id="DP_WEvR6P0dLDyTKHy58-3" style="edgeStyle=orthogonalEdgeStyle;rounded=0;orthogonalLoop=1;jettySize=auto;html=1;exitX=0.5;exitY=1;exitDx=0;exitDy=0;entryX=0.5;entryY=0;entryDx=0;entryDy=0;" parent="1" source="DP_WEvR6P0dLDyTKHy58-1" target="WWze8zweUwzWCclQnENY-2" edge="1">
          <mxGeometry relative="1" as="geometry" />
        </mxCell>
        <mxCell id="DP_WEvR6P0dLDyTKHy58-1" value="Acordar abono o pago del repuesto" style="rounded=0;whiteSpace=wrap;html=1;fontSize=15;fillColor=#66FFFF;fontStyle=1" parent="1" vertex="1">
          <mxGeometry x="-240" y="130" width="120" height="60" as="geometry" />
        </mxCell>
        <mxCell id="8ceTDcRG9uA8ucG6qoj3-1" value="LA CASA DE LA AMAROK" style="text;html=1;strokeColor=none;fillColor=none;align=center;verticalAlign=middle;whiteSpace=wrap;rounded=0;fontSize=19;fontColor=#994C00;" vertex="1" parent="1">
          <mxGeometry x="430" y="-180" width="320" height="30" as="geometry" />
        </mxCell>
      </root>
    </mxGraphModel>
  </diagram>
</mxfile>
